<svg width="20" height="18" viewBox="0 0 20 18" fill="none" xmlns="http://www.w3.org/2000/svg">
<path fill-rule="evenodd" clip-rule="evenodd" d="M10 1.67302C11.0922 0.599923 12.5316 0 14.0704 0C17.34 0 20 2.75348 20 6.13794C20 12.4397 10.7629 17.3674 10.3696 17.5742L9.98222 17.7778L9.60267 17.5588C9.21067 17.3327 0 11.9525 0 6.13794C0 2.75348 2.66 0 5.92956 0C7.46822 0 8.90733 0.600153 10 1.67302ZM1.63249 6.13789C1.63249 9.95182 7.35515 14.2341 10.0125 15.854C11.6974 14.8865 18.3672 10.7627 18.3672 6.13789C18.3672 3.68529 16.4396 1.69 14.0703 1.69C12.7174 1.69 11.4703 2.3304 10.6494 3.44675L9.99982 4.32984L9.35027 3.44675C8.52915 2.3304 7.28226 1.69 5.92938 1.69C3.56004 1.69 1.63249 3.68529 1.63249 6.13789Z" fill="#212224"/>
</svg>
