<svg width="40" height="40" viewBox="0 0 40 40" fill="none" xmlns="http://www.w3.org/2000/svg">
<path d="M34.2327 5.95239C30.519 2.19005 25.5646 0.0773154 20.2822 0.00340911C19.7187 -0.00440339 19.2258 0.39294 19.1161 0.948018C18.6929 3.0895 16.8754 4.69161 14.6963 4.84403C14.3463 4.86857 14.0256 5.04857 13.8226 5.33474C13.6194 5.62091 13.5552 5.98294 13.6476 6.32146C14.084 7.92114 13.7833 9.70466 12.8226 11.2147C11.8285 12.7772 10.2877 13.8136 8.59529 14.0582C7.96764 14.1489 7.52592 14.7225 7.59881 15.3526C7.62053 15.5407 7.63154 15.7296 7.63154 15.9141C7.63154 18.5926 5.45248 20.7717 2.77389 20.7717C2.35849 20.7717 1.94537 20.719 1.54623 20.6151C1.1767 20.5188 0.783495 20.6088 0.492557 20.856C0.201463 21.1032 0.0491196 21.4765 0.0841978 21.8568C0.539588 26.7996 2.81287 31.3765 6.48514 34.7441C10.1807 38.1333 14.9794 39.9999 19.9975 39.9999C25.3397 39.9999 30.3621 37.9196 34.1397 34.142C37.9172 30.3645 39.9975 25.3421 39.9975 19.9999C39.9975 14.7074 37.9502 9.71857 34.2327 5.95239ZM32.4824 32.4847C29.1475 35.8196 24.7137 37.6561 19.9975 37.6561C15.5676 37.6561 11.3313 36.0085 8.06904 33.0168C5.19482 30.3809 3.29146 26.9071 2.61631 23.1137C2.66873 23.1149 2.72131 23.1154 2.77381 23.1154C6.6642 23.1154 9.84396 20.0143 9.97123 16.1543C11.9192 15.596 13.6415 14.2937 14.8001 12.4727C15.8695 10.7916 16.3363 8.84521 16.1446 6.97396C18.4632 6.37794 20.3539 4.65107 21.1487 2.382C25.4725 2.65911 29.4979 4.49185 32.5647 7.59888C35.8465 10.9236 37.6538 15.3278 37.6538 19.9999C37.6537 24.7161 35.8172 29.15 32.4824 32.4847Z" fill="#759D1E"/>
<path d="M13.7998 21.1472C11.5591 21.1472 9.73614 22.9702 9.73614 25.2109C9.73614 27.4516 11.5591 29.2746 13.7998 29.2746C16.0406 29.2746 17.8636 27.4516 17.8636 25.2109C17.8635 22.9702 16.0405 21.1472 13.7998 21.1472ZM13.7998 26.9308C12.8515 26.9308 12.0799 26.1593 12.0799 25.2109C12.0799 24.2625 12.8515 23.491 13.7998 23.491C14.7483 23.491 15.5198 24.2625 15.5198 25.2109C15.5197 26.1593 14.7482 26.9308 13.7998 26.9308Z" fill="#759D1E"/>
<path d="M23.5763 14.2901C25.942 14.2901 27.8667 12.3654 27.8667 9.99974C27.8667 7.63404 25.942 5.70935 23.5763 5.70935C21.2106 5.70935 19.2859 7.63404 19.2859 9.99974C19.2859 12.3654 21.2105 14.2901 23.5763 14.2901ZM23.5763 8.0531C24.6496 8.0531 25.5229 8.92638 25.5229 9.99974C25.5229 11.0732 24.6496 11.9464 23.5763 11.9464C22.5029 11.9464 21.6296 11.0731 21.6296 9.99974C21.6296 8.9263 22.5028 8.0531 23.5763 8.0531Z" fill="#759D1E"/>
<path d="M25.6258 24.3807C23.4577 24.3807 21.6939 26.1446 21.6939 28.3126C21.6939 30.4807 23.4577 32.2445 25.6258 32.2445C27.7938 32.2445 29.5576 30.4807 29.5576 28.3126C29.5576 26.1446 27.7938 24.3807 25.6258 24.3807ZM25.6258 29.9007C24.7501 29.9007 24.0376 29.1883 24.0376 28.3126C24.0376 27.4369 24.7501 26.7245 25.6258 26.7245C26.5015 26.7245 27.2139 27.4369 27.2139 28.3126C27.2139 29.1883 26.5015 29.9007 25.6258 29.9007Z" fill="#759D1E"/>
<path d="M35.0568 18.3413C35.0568 16.1733 33.293 14.4094 31.1249 14.4094C28.9569 14.4094 27.1931 16.1733 27.1931 18.3413C27.1931 20.5093 28.9569 22.2732 31.1249 22.2732C33.293 22.2732 35.0568 20.5093 35.0568 18.3413ZM31.1249 19.9294C30.2493 19.9294 29.5369 19.217 29.5369 18.3413C29.5369 17.4656 30.2493 16.7532 31.1249 16.7532C32.0006 16.7532 32.713 17.4656 32.713 18.3413C32.713 19.217 32.0006 19.9294 31.1249 19.9294Z" fill="#759D1E"/>
<path d="M29.9754 10.9437C30.0751 11.4242 30.4658 11.8003 30.9525 11.8738C31.4361 11.9467 31.9283 11.6978 32.1574 11.2663C32.3866 10.8347 32.3226 10.2907 31.9927 9.92791C31.6633 9.56572 31.1287 9.44447 30.6762 9.63268C30.1617 9.84674 29.8737 10.3994 29.9754 10.9437Z" fill="#759D1E"/>
<path d="M34.7279 25.3235C34.6361 24.8432 34.2326 24.4663 33.7517 24.3939C33.2685 24.3212 32.7752 24.5692 32.546 25.0009C32.3168 25.4324 32.3815 25.9774 32.7111 26.3399C33.041 26.7029 33.5746 26.821 34.0272 26.6345C34.5352 26.425 34.8401 25.864 34.7279 25.3235Z" fill="#759D1E"/>
<path d="M14.9428 17.0078C15.0327 17.4877 15.4395 17.8658 15.9191 17.9379C16.4036 18.0108 16.8938 17.7615 17.1248 17.3305C17.3562 16.8986 17.287 16.3555 16.9599 15.992C16.6317 15.6273 16.0952 15.5108 15.6435 15.6968C15.1355 15.9062 14.8306 16.4674 14.9428 17.0078Z" fill="#759D1E"/>
<path d="M19.5842 33.1124C19.4834 32.6317 19.0949 32.256 18.6072 32.182C18.124 32.1087 17.6317 32.3583 17.4022 32.789C17.1722 33.2204 17.2377 33.7654 17.5669 34.128C17.8957 34.4902 18.4315 34.6109 18.8833 34.4233C19.3904 34.2129 19.6964 33.6529 19.5842 33.1124Z" fill="#759D1E"/>
<path d="M24.6975 17.3758C24.5447 16.9088 24.1302 16.571 23.634 16.5457C23.1448 16.5207 22.6815 16.8168 22.4944 17.268C22.3072 17.7191 22.4258 18.2571 22.7896 18.5846C23.1545 18.9132 23.6945 18.9795 24.128 18.7493C24.618 18.489 24.8547 17.9053 24.6975 17.3758Z" fill="#759D1E"/>
<path d="M21.8075 23.1165C22.2157 22.8478 22.4127 22.3301 22.2936 21.8573C22.1742 21.3833 21.7593 21.024 21.2723 20.9768C20.7855 20.9297 20.3066 21.1981 20.0982 21.6418C19.8902 22.0847 19.9818 22.6247 20.3286 22.9713C20.7179 23.3602 21.3502 23.4249 21.8075 23.1165Z" fill="#759D1E"/>
<path d="M7.05677 25.3235C6.9649 24.8432 6.56146 24.4663 6.08052 24.394C5.59701 24.3211 5.10412 24.5691 4.87474 25.0009C4.64544 25.4326 4.7099 25.9772 5.03958 26.34C5.36927 26.7027 5.90357 26.8214 6.35599 26.6345C6.86318 26.4249 7.17005 25.864 7.05677 25.3235Z" fill="#759D1E"/>
<path d="M7.07854 8.12734C9.31932 8.12734 11.1423 6.30438 11.1423 4.06367C11.1422 1.82297 9.31924 0 7.07854 0C4.83783 0 3.01487 1.82297 3.01487 4.06367C3.01487 6.30438 4.83783 8.12734 7.07854 8.12734ZM7.07854 2.34375C8.02698 2.34375 8.79854 3.11531 8.79854 4.06367C8.79854 5.01203 8.02698 5.78359 7.07854 5.78359C6.13018 5.78359 5.35862 5.01203 5.35862 4.06367C5.35862 3.11531 6.13018 2.34375 7.07854 2.34375Z" fill="#759D1E"/>
<path d="M0.135576 13.2195C0.361982 13.6516 0.860341 13.8996 1.34143 13.8267C1.82558 13.7533 2.22183 13.3774 2.31839 12.8968C2.41472 12.4174 2.19065 11.9137 1.7712 11.6628C1.35065 11.4113 0.805732 11.452 0.426201 11.7617C-0.00708054 12.1153 -0.115518 12.7278 0.135576 13.2195Z" fill="#759D1E"/>
</svg>
