<svg width="40" height="40" viewBox="0 0 40 40" fill="none" xmlns="http://www.w3.org/2000/svg">
<path d="M38.1285 28.8859L40 27.8053L38.1285 26.7247C37.9641 26.6298 34.536 24.6784 29.9458 24.1703C33.3163 20.3427 34.4383 15.9162 34.4877 15.7162L34.9825 13.711L32.9773 14.2059C32.776 14.2556 28.2948 15.3915 24.4509 18.8118C24.4759 18.3182 24.4884 17.8287 24.4884 17.3443C24.4884 9.4637 21.2445 3.15269 21.1063 2.88784L20 0.766357L18.8937 2.88784C18.7555 3.15269 15.5116 9.4637 15.5116 17.3443C15.5116 17.8287 15.5241 18.3182 15.5491 18.8118C11.7052 15.3915 7.22391 14.2556 7.02266 14.2059L5.0175 13.711L5.51227 15.7162C5.56164 15.9162 6.68414 20.3429 10.0543 24.1703C5.46406 24.6785 2.03586 26.6299 1.87148 26.7247L0 27.8052L1.87148 28.8857C2.06055 28.995 6.56836 31.5603 12.195 31.5603C12.3991 31.5603 12.6046 31.5568 12.8112 31.55C11.5264 33.7735 11.2054 35.9017 11.1881 36.0217L10.9508 37.6716L12.6008 37.4342C12.751 37.4126 16.0585 36.9132 18.7521 34.6357V39.2335H21.2477V34.6357C23.9412 36.9133 27.2488 37.4128 27.399 37.4344L29.049 37.6718L28.8116 36.0218C28.7944 35.902 28.4735 33.7738 27.1885 31.5502C27.3951 31.5571 27.6006 31.5605 27.8048 31.5605C33.4316 31.5604 37.9395 28.9951 38.1285 28.8859ZM23.5588 30.8956C23.5951 30.9304 23.6311 30.9657 23.6665 31.001C24.728 32.0625 25.3894 33.3605 25.789 34.4152C24.7388 34.0175 23.4462 33.3567 22.3784 32.289C21.8951 31.8057 21.456 31.2333 21.0733 30.588L20.0002 28.7783L18.927 30.588C18.5442 31.2333 18.1052 31.8057 17.6219 32.289C16.5623 33.3485 15.2672 34.0095 14.2136 34.4093C14.6134 33.3555 15.2742 32.0607 16.3334 31.0014C16.3691 30.9657 16.4052 30.9304 16.4414 30.8957L19.4248 28.025L15.352 28.769C14.2768 28.9654 13.2148 29.065 12.1952 29.065C9.58813 29.065 7.21469 28.4186 5.54922 27.8053C7.21492 27.1917 9.58844 26.5455 12.1952 26.5455C12.4505 26.5455 12.7169 26.5521 12.987 26.5653L16.7873 26.7499L13.8344 24.3506C13.4007 23.9982 12.9887 23.6275 12.6098 23.2486C10.7116 21.3503 9.49687 19.118 8.78289 17.4732C10.4236 18.1845 12.6498 19.3971 14.5555 21.3028C15.1409 21.8882 15.7 22.5451 16.2171 23.2552L19.3868 27.6073L18.4546 22.3046C18.1578 20.6164 18.0073 18.9475 18.0073 17.3442C18.0073 12.9992 19.1102 9.10417 20.0002 6.66847C20.8902 9.10441 21.993 12.9992 21.993 17.3442C21.993 18.9475 21.8425 20.6164 21.5457 22.3046L20.6134 27.6075L23.7831 23.2553C24.3003 22.5452 24.8594 21.8884 25.4447 21.303C27.341 19.4067 29.5708 18.1926 31.2151 17.4784C30.5008 19.123 29.2868 21.3525 27.3905 23.2488C27.0116 23.6276 26.5995 23.9985 26.1658 24.3509L23.2133 26.7502L27.0133 26.5656C27.284 26.5525 27.5503 26.5458 27.8051 26.5458C30.4119 26.5458 32.7854 27.1921 34.451 27.8055C32.7854 28.419 30.4119 29.0653 27.8051 29.0653C26.7855 29.0653 25.7235 28.9657 24.6483 28.7693L20.5755 28.0253L23.5588 30.8956Z" fill="#EAB351"/>
</svg>
