<svg width="18" height="18" viewBox="0 0 18 18" fill="none" xmlns="http://www.w3.org/2000/svg">
<path d="M8.98702 3.48C10.6746 3.48 11.8129 4.21 12.462 4.82L14.9983 2.34C13.4406 0.890001 11.4135 0 8.98702 0C5.4721 0 2.43648 2.02 0.958618 4.96L3.86442 7.22C4.59337 5.05 6.61045 3.48 8.98702 3.48Z" fill="white"/>
<path d="M17.6146 9.19999C17.6146 8.45999 17.5547 7.91999 17.4249 7.35999H8.98706V10.7H13.9399C13.84 11.53 13.3008 12.78 12.1026 13.62L14.9385 15.82C16.636 14.25 17.6146 11.94 17.6146 9.19999Z" fill="white"/>
<path d="M3.8744 10.78C3.68468 10.22 3.57484 9.61996 3.57484 8.99996C3.57484 8.37996 3.68468 7.77996 3.86442 7.21996L0.958615 4.95996C0.349495 6.17996 0 7.54996 0 8.99996C0 10.45 0.349495 11.82 0.958615 13.04L3.8744 10.78Z" fill="white"/>
<path d="M8.98704 18C11.4135 18 13.4506 17.2 14.9384 15.82L12.1025 13.62C11.3436 14.15 10.3251 14.52 8.98704 14.52C6.61048 14.52 4.59339 12.95 3.87443 10.78L0.968628 13.04C2.44649 15.98 5.47212 18 8.98704 18Z" fill="white"/>
</svg>
