<svg width="80" height="36" viewBox="0 0 80 36" fill="none" xmlns="http://www.w3.org/2000/svg">
<path d="M21.9522 20.3829C21.8836 20.3666 21.8892 20.2761 21.8673 20.2132C21.5603 20.2079 21.2681 20.2175 21.047 20.298C20.973 20.2683 20.9545 20.1832 20.9622 20.0717C20.6896 20.0822 20.503 20.1784 20.2549 20.2132C20.2112 20.1721 20.1956 20.1028 20.1984 20.0152C19.9009 20.01 19.7352 20.1366 19.5477 20.2414C19.4598 20.2351 19.4999 20.1007 19.4911 20.0152C19.1828 20.018 19.0223 20.1687 18.8405 20.298C18.7738 20.2422 18.8012 20.0921 18.7557 20.0152C18.487 20.0671 18.355 20.2557 18.1616 20.3829C18.073 20.3678 18.0597 20.2774 18.0484 20.1849C17.8125 20.2507 17.6756 20.4156 17.511 20.5527C17.3794 20.5712 17.4123 20.4251 17.3412 20.383C17.1167 20.4507 17.0602 20.6865 16.8321 20.7508C16.7525 20.7548 16.7505 20.6814 16.7472 20.6093C16.4893 20.7286 16.2987 20.9151 16.0966 21.0902C16.008 21.1035 16.0168 21.0191 15.9835 20.977C15.7772 21.1008 15.6011 21.2547 15.446 21.4296C15.3901 21.4101 15.3706 21.3542 15.3612 21.2881C15.127 21.4216 14.972 21.6344 14.7388 21.769C14.6848 21.7571 14.6171 21.7588 14.6257 21.6842C14.0544 22.2444 13.1866 22.5082 12.3343 22.7875C12.4099 22.5263 12.6692 22.3634 12.8719 22.1934C13.5581 21.6176 14.3184 20.9776 15.3612 20.7223C15.3822 20.6353 15.2835 20.668 15.3046 20.581C15.5189 20.3238 15.9635 20.297 16.323 20.1849C16.3891 20.1105 16.2421 20.0777 16.2381 19.9869C16.4923 19.845 16.851 19.8077 17.115 19.6757C17.1369 19.5655 17.0104 19.529 17.0868 19.4494C17.4384 19.3578 17.7729 19.2491 18.0485 19.0817C18.021 18.9677 17.8895 18.9578 17.8788 18.827C18.1878 18.7589 18.505 18.6989 18.7558 18.5725C18.7255 18.4426 18.6014 18.4063 18.5861 18.2613C18.9251 18.2043 19.2102 18.0935 19.4629 17.9502C19.4518 17.8105 19.322 17.7894 19.2932 17.6673C19.5171 17.5422 19.7827 17.459 20.0853 17.4127C20.0607 17.3033 20.1326 17.2903 20.1701 17.2429C20.0994 17.1251 19.9307 17.1051 19.9155 16.9318C20.2138 16.8245 20.4852 16.6906 20.6511 16.4508C20.6486 16.3024 20.4598 16.3403 20.4529 16.1963C20.7236 16.0425 20.9976 15.8923 21.1885 15.6588C21.1688 15.537 21.0219 15.5425 20.9904 15.4324C21.1767 15.1757 21.4502 15.006 21.641 14.7536C21.6154 14.6377 21.4827 14.629 21.443 14.5272C21.6342 14.1901 22.1705 13.9292 22.0371 13.4523C22.2821 13.0563 22.5426 12.6755 22.7442 12.236C22.8201 12.1421 22.9268 12.0791 22.8857 11.8682C22.3231 12.1732 21.847 12.5645 21.2732 12.8583C21.1658 12.8526 21.1659 12.7393 21.047 12.7451C20.7277 12.9255 20.4317 13.1292 20.1984 13.3957C20.058 13.3947 20.0252 13.286 19.972 13.1978C19.6684 13.3561 19.503 13.6528 19.2649 13.8766C19.1796 13.8205 19.0961 13.7624 19.0668 13.6504C18.8054 13.832 18.6183 14.0881 18.5011 14.4141C18.35 14.4048 18.3675 14.2269 18.2465 14.1878C18.0121 14.3683 17.8315 14.6026 17.7656 14.9516C17.5785 14.9407 17.5697 14.7514 17.4262 14.697C17.2343 14.9199 17.1175 15.2181 17.0585 15.5739C16.9018 15.5796 16.8895 15.4411 16.7755 15.4042C16.5567 15.5907 16.4723 15.9119 16.4362 16.2811C16.2673 16.2707 16.2488 16.1101 16.0967 16.0831C16.0084 16.3625 15.8911 16.613 15.8703 16.96C15.6911 16.9885 15.728 16.8006 15.5874 16.7903C15.4418 17.0972 15.296 17.4041 15.248 17.8087C15.1251 17.8184 15.0901 17.7402 14.9934 17.7238C14.9229 18.0304 14.7846 18.2693 14.7388 18.6008C14.5953 18.6425 14.5638 18.4788 14.4842 18.5442C14.413 18.8972 14.3277 19.2363 14.1731 19.506C14.0759 19.5183 14.0146 19.4948 13.9468 19.4777C13.6733 20.8919 12.7182 21.6247 11.9949 22.5893C11.8532 22.4679 11.9751 22.2711 11.9949 22.1084C12.1493 20.8468 12.3255 19.5641 12.9001 18.7421C12.7565 18.7726 12.7261 18.69 12.6738 18.6291C12.8153 18.1481 13.0487 17.7593 13.2961 17.3844C13.2268 17.3405 13.112 17.3421 13.0132 17.3277C13.13 16.8882 13.4424 16.6441 13.5224 16.168C13.4277 16.159 13.3441 16.1388 13.296 16.0831C13.4844 15.6491 13.7591 15.3014 13.8619 14.7818C13.7237 14.7785 13.5638 14.797 13.4658 14.7535C13.6577 14.3892 13.9302 14.1052 14.0316 13.6503C13.8554 13.6662 13.7336 13.6277 13.6072 13.5937C13.7674 13.2248 14.0846 12.8653 14.0882 12.4339C13.9073 12.445 13.7902 12.3924 13.6356 12.3773C13.8279 12.0313 14.1153 11.6325 14.0882 11.1609C13.9315 11.1887 13.7311 11.2077 13.579 11.1609C13.7257 10.8443 13.9262 10.4347 13.8053 9.94457C13.6732 9.97272 13.5548 10.0146 13.381 10.0011C13.4983 9.66075 13.6865 9.13877 13.5507 8.72823C13.4709 8.77108 13.3738 8.79661 13.2395 8.7848C13.2107 8.76642 13.2103 8.71976 13.1546 8.72823C13.2132 8.31677 13.1958 7.95026 13.183 7.51182C13.0509 7.51182 12.9188 7.51182 12.7869 7.51182C12.7275 6.82927 12.7371 6.50869 12.5606 6.01258C12.4481 6.03718 12.4185 6.03718 12.306 6.01258C12.2174 5.14877 11.9818 4.43209 11.7119 3.74953C11.6663 3.74159 11.6633 3.77631 11.6271 3.77788C11.4742 4.61505 11.3254 5.45628 11.0613 6.18235C10.972 6.22047 10.9502 6.17178 10.8067 6.21063C10.6633 6.62354 10.5878 7.10436 10.6087 7.68159C10.4705 7.67831 10.3106 7.69688 10.2126 7.65331C10.1377 8.05368 10.1653 8.48883 10.2126 8.898C10.1123 9.00411 9.91943 8.9228 9.78831 8.898C9.7116 9.32961 9.84993 9.74934 9.95801 10.0861C9.85945 10.1689 9.70064 10.1333 9.56204 10.1143C9.44424 10.5922 9.64492 10.9919 9.78831 11.3024C9.63121 11.3898 9.45487 11.3339 9.25085 11.3307C9.3086 11.8391 9.46642 12.1508 9.73181 12.4905C9.67006 12.6268 9.39824 12.5531 9.25085 12.6037C9.35939 13.0515 9.55068 13.4165 9.78831 13.7351C9.6801 13.8061 9.51006 13.8152 9.3357 13.82C9.44811 14.245 9.66901 14.5617 9.90151 14.8666C9.86122 14.9867 9.65837 14.9441 9.50547 14.9516C9.62523 15.4542 9.88727 15.8144 10.0712 16.2527C10.0339 16.3286 9.89186 16.2997 9.81666 16.3376C9.92074 16.7709 10.2448 16.9843 10.2975 17.4692C10.2935 17.55 10.1795 17.5209 10.0995 17.5257C10.2693 17.9689 10.5618 18.2892 10.6936 18.7703C10.6623 18.8618 10.6035 18.9255 10.4673 18.9118C11.1487 19.813 11.2565 21.1339 11.4573 22.5326C11.4245 22.528 11.407 22.5389 11.4008 22.561C10.9918 22.223 10.674 21.7505 10.3259 21.2881C9.93649 20.7708 9.51262 20.278 9.42062 19.4777C8.94603 19.5707 9.02668 18.8754 8.88322 18.5441C8.80664 18.4758 8.78262 18.6316 8.65689 18.6007C8.55208 18.319 8.46467 18.0197 8.37398 17.7238C8.27351 17.727 8.27115 17.8284 8.14771 17.8086C8.04698 17.4474 7.94336 17.0889 7.77995 16.7903C7.66045 16.8121 7.67003 16.9633 7.52533 16.9599C7.4477 16.6605 7.3784 16.3526 7.27078 16.083C7.13795 16.1199 7.08545 16.2372 6.95959 16.281C6.87762 15.9575 6.8183 15.6114 6.62018 15.4041C6.48808 15.4229 6.46668 15.5523 6.33721 15.5739C6.2223 15.2645 6.15392 14.9085 5.94123 14.6969C5.80815 14.7525 5.78387 14.9168 5.63004 14.9516C5.49538 14.643 5.39078 14.3045 5.0643 14.1878C5.04888 14.3043 4.97131 14.3586 4.89459 14.414C4.74537 14.1202 4.56602 13.8562 4.32885 13.6503C4.24078 13.7037 4.22484 13.8291 4.1308 13.8766C3.85957 13.6858 3.71087 13.3725 3.42363 13.1977C3.33261 13.2482 3.3269 13.3839 3.19736 13.3957C2.92745 13.1564 2.65419 12.9205 2.32043 12.745C2.21707 12.7455 2.19331 12.8255 2.12237 12.8582C1.5185 12.5758 1.04916 12.1587 0.453356 11.8681C0.673722 12.4399 0.990949 12.9148 1.30207 13.3957C1.22332 13.9509 1.68774 14.1688 1.92438 14.4989C1.89912 14.6152 1.78579 14.6433 1.7264 14.7252C1.89518 14.9996 2.1647 15.1734 2.37699 15.4042C2.37148 15.5495 2.19718 15.5261 2.17894 15.6588C2.36978 15.8923 2.64382 16.0425 2.91445 16.1963C2.92646 16.3592 2.71417 16.2977 2.7164 16.4508C2.89365 16.6697 3.11133 16.848 3.45192 16.9035C3.44634 17.0864 3.30472 17.1334 3.19729 17.2147C3.39134 17.5077 3.74414 17.4715 4.01766 17.6673C4.05218 17.7975 3.89389 17.8811 3.93281 17.9219C4.13178 18.1094 4.41272 18.215 4.78139 18.233C4.78369 18.4051 4.64234 18.4334 4.61175 18.5725C4.87609 18.6759 5.12867 18.791 5.48862 18.7988C5.49427 18.9553 5.35869 18.9706 5.31892 19.0817C5.6055 19.2289 5.88263 19.3855 6.28071 19.4211C6.34436 19.5303 6.24737 19.5519 6.25242 19.6758C6.5247 19.7901 6.8307 19.8707 7.12935 19.9587C7.14694 20.0779 6.9754 20.1018 7.04457 20.185C7.40721 20.2844 7.81119 20.3424 8.06292 20.5528C8.09318 20.6584 7.99271 20.6333 8.00636 20.7224C9.35355 21.0819 10.2028 21.9393 11.0897 22.7592C10.35 22.6314 9.57352 22.2953 8.99642 21.9105C8.93992 21.8162 8.84083 21.7642 8.77009 21.6843C8.73229 21.7125 8.7145 21.7607 8.65695 21.7691C8.41959 21.6482 8.23696 21.4725 8.06292 21.2882C7.96626 21.267 8.02696 21.4031 7.9215 21.3731C7.71912 21.2736 7.5943 21.0967 7.41226 20.977C7.33961 20.9798 7.37184 21.0875 7.29912 21.0902C7.07154 20.9406 6.89068 20.7443 6.64846 20.6093C6.59104 20.6274 6.62983 20.7415 6.56354 20.7508C6.31325 20.7087 6.25728 20.4724 6.05437 20.383C5.93959 20.3813 6.00338 20.5583 5.8846 20.5527C5.68635 20.4398 5.5717 20.2435 5.31885 20.1849C5.31964 20.28 5.27994 20.3346 5.234 20.3829C5.00314 20.2837 4.89715 20.0597 4.61169 20.0152C4.567 20.0742 4.59207 20.203 4.55506 20.2697C4.36914 20.254 4.20095 19.9854 3.87611 20.0152C3.87276 20.0967 3.89153 20.2004 3.84783 20.2414C3.61407 20.1735 3.49182 19.994 3.16894 20.0152C3.18542 20.107 3.14972 20.1467 3.14073 20.2132C2.87173 20.1899 2.68936 20.0799 2.40521 20.0717C2.42162 20.1824 2.38093 20.2359 2.34871 20.298C2.11417 20.2309 1.84019 20.2031 1.52828 20.2132C1.48739 20.2572 1.46882 20.3235 1.44343 20.3829C0.925587 20.397 0.542212 20.3817 0.000747681 20.3829C0.299731 20.6874 0.726549 20.8641 1.16059 21.0336C1.21998 21.4079 1.68761 21.374 1.98089 21.5145C2.00097 21.6194 1.93252 21.6358 1.95254 21.7408C2.16286 21.804 2.38093 21.8593 2.63142 21.8822C2.6727 21.9318 2.61403 22.0528 2.60313 22.1368C2.77947 22.2057 3.03612 22.1942 3.28208 22.1933C3.34725 22.2618 3.25327 22.3307 3.2538 22.4196C3.43374 22.5256 3.72891 22.4551 3.96103 22.4479C3.97842 22.5784 3.8975 22.6107 3.90439 22.7308C4.14254 22.7935 4.38673 22.6836 4.61162 22.6459C4.6758 22.676 4.62239 22.8237 4.63991 22.9005C4.91559 22.9028 5.10991 22.8236 5.31879 22.759C5.40003 22.815 5.30894 22.9356 5.31879 23.0136C5.58496 23.0063 5.75453 22.9024 5.96938 22.8439C6.03324 22.865 5.98047 23.0025 5.99767 23.0702C6.25026 23.0967 6.68633 22.7983 6.8181 23.0702C7.02468 23.0223 7.21342 22.9563 7.44041 22.9288C7.49888 22.9458 7.54758 22.9726 7.5252 23.0702C7.74812 23.0007 7.97052 22.9308 8.20408 22.8722C8.30252 22.8775 8.32988 22.9539 8.37385 23.0136C9.28694 22.6937 10.5834 22.9761 11.3724 23.0984C10.963 23.4073 10.5014 23.636 9.90138 23.6358C9.90138 23.6736 9.90138 23.7114 9.90138 23.749C9.59131 23.7218 9.48697 23.9004 9.19422 23.8905C9.15747 24.0518 8.89431 23.9866 8.76989 24.0602C8.68484 24.0316 8.71982 24.1232 8.71332 24.1734C8.62834 24.211 8.49696 24.2021 8.37385 24.2017C8.32673 24.2578 8.37647 24.2376 8.37385 24.3148C8.2659 24.4056 7.91501 24.3046 8.03438 24.5411C7.95963 24.5984 7.7747 24.5454 7.6949 24.5977C7.63328 24.6568 7.70908 24.6784 7.6949 24.7673C7.5945 24.8083 7.47355 24.8288 7.38378 24.8805C7.33069 24.9344 7.40058 24.9317 7.38378 25.022C7.29145 25.09 7.16473 25.1235 7.07266 25.1917C7.05205 25.2689 7.12883 25.2487 7.12916 25.3049C7.03735 25.3828 6.91549 25.4305 6.81804 25.5029C6.76547 25.5529 6.83037 25.5855 6.84625 25.6444C6.47791 25.8982 6.3166 26.3593 5.96932 26.6345C6.40218 26.4959 6.81771 26.4991 7.15744 26.295C7.26297 26.2649 7.2022 26.4011 7.29893 26.3798C7.49698 26.1471 7.79111 26.3485 7.94959 26.0687C8.11509 26.1864 8.22147 26.0346 8.31728 25.9272C8.42294 25.897 8.39793 25.9974 8.48705 25.9838C8.54795 25.8939 8.63976 25.8348 8.65669 25.7008C8.76234 25.6707 8.73734 25.7712 8.82639 25.7575C8.88296 25.6631 8.9747 25.604 8.9961 25.4746C9.08318 25.4535 9.05056 25.5523 9.13758 25.5311C9.1805 25.4421 9.26345 25.3931 9.279 25.2765C9.33675 25.2094 9.39089 25.3154 9.44871 25.2482C9.58625 24.9681 9.8097 24.9485 9.92953 24.6541C9.98033 24.6506 9.98925 24.6888 10.0427 24.6825C10.4111 24.0796 10.8993 23.5965 11.5138 23.2398C11.7144 25.0293 11.8001 27.4052 11.7118 29.35C11.6875 29.8849 11.6203 30.4594 11.2874 30.7927C11.2454 31.0459 11.2387 31.4221 11.3723 31.5847C12.0015 31.3349 11.892 30.0282 12.0512 29.2651C12.0373 28.1075 12.0571 26.4556 11.9664 24.9937C11.9293 24.3968 11.8561 23.8133 11.9098 23.2681C12.4998 23.6117 12.9393 24.1055 13.3242 24.6541C13.5213 24.6016 13.4759 24.9518 13.7202 24.9371C13.7693 25.0579 13.8377 25.1591 13.9183 25.2483C13.9722 25.3013 13.9894 25.2514 14.0598 25.2483C14.1039 25.355 14.17 25.4398 14.2294 25.5312C14.3066 25.5518 14.2864 25.475 14.3426 25.4746C14.4121 25.5654 14.4653 25.6725 14.5407 25.7575C14.6278 25.7787 14.5951 25.6799 14.6821 25.7009C14.7492 25.7942 14.799 25.9047 14.8801 25.9839C14.9692 25.9975 14.9442 25.8971 15.0498 25.9273C15.1206 25.9886 15.168 26.0732 15.2479 26.1253C15.4241 25.9991 15.5151 26.1874 15.6439 26.2667C15.8025 26.1347 15.907 26.2989 16.0399 26.3516C16.1057 26.4199 16.1157 26.3074 16.1813 26.2951C16.5465 26.4866 16.9517 26.4994 17.3977 26.6345C17.0441 26.3752 16.9146 25.8919 16.5209 25.6728C16.5202 25.6061 16.5695 25.5895 16.5491 25.503C16.4442 25.4476 16.3673 25.3643 16.238 25.3333C16.2169 25.2462 16.3157 25.2789 16.2945 25.1919C16.1922 25.1434 16.1187 25.0661 15.9834 25.0505C15.9604 24.9527 16.0362 24.931 15.9834 24.8807C15.878 24.8542 15.8262 24.7739 15.6723 24.7959C15.6066 24.7306 15.7247 24.7047 15.7006 24.5979C15.5972 24.5787 15.4948 24.5585 15.3611 24.5696C15.2815 24.5409 15.3689 24.4494 15.3611 24.3998C15.1956 24.3667 14.9359 24.3765 14.9933 24.2019C14.7993 24.2167 14.6218 24.215 14.6257 24.0321C14.4771 24.0487 14.4114 23.9823 14.2579 24.0039C14.2196 23.9762 14.2212 23.9084 14.173 23.8907C13.8755 23.9054 13.7834 23.7147 13.4659 23.7493C13.4161 23.7425 13.4014 23.7006 13.4093 23.6361C12.9307 23.653 12.3784 23.3797 11.9949 23.1269C12.7777 22.9514 14.0682 22.7055 14.9651 23.0138C15.05 22.995 15.0448 22.8861 15.1348 22.8724C15.389 22.92 15.609 23.0017 15.8421 23.0704C15.8178 22.9802 15.8667 22.963 15.8986 22.929C16.1348 22.9473 16.3232 23.0136 16.521 23.0704C16.6792 22.8058 17.0959 23.0914 17.3696 23.0704C17.3696 22.9949 17.3696 22.9195 17.3696 22.8441C17.6099 22.8866 17.7685 23.0108 18.0484 23.0138C18.0472 22.9207 18.0007 22.873 18.0201 22.7592C18.2552 22.8071 18.436 22.9092 18.7274 22.9007C18.7274 22.8159 18.7274 22.731 18.7274 22.6461C18.9781 22.6664 19.2037 22.8067 19.4628 22.731C19.4716 22.6185 19.3975 22.5889 19.4062 22.4763C19.5866 22.4106 19.9419 22.5495 20.1135 22.4198C20.1087 22.3397 20.0616 22.3019 20.0568 22.2218C20.256 22.1569 20.5913 22.2281 20.7641 22.1369C20.7345 22.0722 20.7461 21.9663 20.7074 21.9106C20.9269 21.8379 21.2037 21.8223 21.4147 21.7408C21.4374 21.6427 21.3725 21.6321 21.3864 21.5428C21.6102 21.3424 22.141 21.4488 22.1784 21.0619C22.6002 20.8613 23.0644 20.7033 23.3665 20.383C22.777 20.3817 22.5083 20.4017 21.9522 20.3829Z" fill="#81AA66"/>
<path d="M11.9658 24.9951C11.9614 24.9239 11.7012 24.3999 11.6886 23.56C11.6168 18.7774 11.6886 3.75092 11.6886 3.75092C11.6633 3.75577 11.6525 3.75945 11.6263 3.7792C11.4734 4.61637 11.3247 5.4576 11.0605 6.18366C10.9712 6.22179 10.9494 6.1731 10.806 6.21195C10.6626 6.62486 10.5871 7.10568 10.6079 7.68291C10.4698 7.67963 10.3099 7.6982 10.2119 7.65463C10.1369 8.055 10.1645 8.49015 10.2119 8.89932C10.1115 9.00543 9.91868 8.92412 9.78756 8.89932C9.71085 9.33093 9.84918 9.75066 9.95727 10.0874C9.8587 10.1702 9.69989 10.1346 9.56129 10.1157C9.4435 10.5935 9.64417 10.9933 9.78756 11.3037C9.63046 11.3911 9.45413 11.3352 9.2501 11.3321C9.30785 11.8405 9.46568 12.1521 9.73106 12.4918C9.66931 12.6281 9.39749 12.5544 9.2501 12.605C9.35864 13.0528 9.54994 13.4178 9.78756 13.7365C9.67935 13.8074 9.50932 13.8165 9.33495 13.8213C9.44737 14.2464 9.66826 14.5631 9.90076 14.868C9.86047 14.988 9.65763 14.9455 9.50472 14.9529C9.62449 15.4555 9.88652 15.8157 10.0705 16.2541C10.0331 16.3299 9.89112 16.3011 9.81591 16.3389C9.91999 16.7722 10.244 16.9856 10.2967 17.4705C10.2928 17.5513 10.1787 17.5223 10.0988 17.527C10.2685 17.9702 10.5611 18.2905 10.6928 18.7717C10.6615 18.8631 10.6027 18.9269 10.4665 18.9131C11.1479 19.8143 11.2558 21.1352 11.4566 22.534C11.4238 22.5294 11.4062 22.5402 11.4 22.5623C10.991 22.2243 10.6733 21.7519 10.3252 21.2894C9.93574 20.7722 9.51188 20.2793 9.41987 19.479C8.94528 19.572 9.02593 18.8767 8.88248 18.5455C8.80589 18.4771 8.78187 18.6329 8.65614 18.602C8.55134 18.3203 8.46393 18.021 8.37323 17.7251C8.27276 17.7283 8.2704 17.8297 8.14696 17.8099C8.04623 17.4487 7.94261 17.0902 7.7792 16.7916C7.6597 16.8134 7.66928 16.9646 7.52458 16.9612C7.44695 16.6618 7.37765 16.3539 7.27003 16.0844C7.1372 16.1212 7.08471 16.2385 6.95884 16.2824C6.87687 15.9588 6.81755 15.6127 6.61943 15.4054C6.48733 15.4243 6.46594 15.5537 6.33646 15.5752C6.22155 15.2658 6.15317 14.9098 5.94048 14.6983C5.8074 14.7538 5.78312 14.9181 5.62929 14.9529C5.49463 14.6443 5.39003 14.3058 5.06355 14.1891C5.04813 14.3056 4.97056 14.36 4.89385 14.4153C4.74462 14.1215 4.56527 13.8575 4.3281 13.6516C4.24003 13.705 4.22409 13.8304 4.13005 13.8779C3.85882 13.6871 3.71012 13.3738 3.42288 13.199C3.33186 13.2495 3.32615 13.3852 3.19661 13.397C2.9267 13.1577 2.65344 12.9218 2.31968 12.7463C2.21632 12.7468 2.19256 12.8268 2.12163 12.8595C1.51775 12.5771 1.04841 12.16 0.452609 11.8695C0.672974 12.4412 0.990201 12.9162 1.30132 13.397C1.22258 13.9522 1.687 14.1701 1.92364 14.5003C1.89837 14.6165 1.78504 14.6446 1.72565 14.7265C1.89443 15.0009 2.16395 15.1747 2.37625 15.4055C2.37073 15.5508 2.19644 15.5274 2.17819 15.6601C2.36903 15.8936 2.64307 16.0438 2.91371 16.1976C2.92572 16.3605 2.71342 16.299 2.71565 16.4521C2.8929 16.671 3.11058 16.8493 3.45117 16.9048C3.44559 17.0878 3.30397 17.1347 3.19655 17.216C3.3906 17.5091 3.74339 17.4728 4.01691 17.6686C4.05143 17.7988 3.89315 17.8824 3.93206 17.9232C4.13103 18.1108 4.41197 18.2164 4.78065 18.2343C4.78294 18.4064 4.64159 18.4347 4.61101 18.5738C4.87534 18.6772 5.12793 18.7923 5.48787 18.8001C5.49352 18.9567 5.35794 18.972 5.31817 19.0831C5.60475 19.2302 5.88188 19.3868 6.27996 19.4225C6.34361 19.5316 6.24662 19.5532 6.25167 19.6771C6.52395 19.7915 6.82995 19.8721 7.12861 19.96C7.14619 20.0792 6.97465 20.1031 7.04382 20.1863C7.40646 20.2857 7.81044 20.3437 8.06218 20.5541C8.09243 20.6597 7.99196 20.6347 8.00561 20.7237C9.3528 21.0832 10.202 21.9407 11.089 22.7605C10.3492 22.6327 9.57277 22.2967 8.99568 21.9118C8.93917 21.8175 8.84008 21.7656 8.76934 21.6856C8.73154 21.7138 8.71376 21.762 8.6562 21.7704C8.41884 21.6495 8.23621 21.4738 8.06218 21.2895C7.96551 21.2683 8.02621 21.4044 7.92076 21.3744C7.71837 21.275 7.59355 21.098 7.41151 20.9783C7.33887 20.9811 7.37109 21.0888 7.29838 21.0915C7.07079 20.9419 6.88993 20.7456 6.64772 20.6106C6.59029 20.6287 6.62908 20.7428 6.5628 20.7521C6.31251 20.71 6.25653 20.4737 6.05362 20.3843C5.93884 20.3826 6.00263 20.5596 5.88385 20.554C5.6856 20.4411 5.57096 20.2448 5.31811 20.1863C5.31889 20.2813 5.27919 20.3359 5.23325 20.3842C5.00239 20.285 4.89641 20.0611 4.61094 20.0165C4.56625 20.0755 4.59132 20.2043 4.55431 20.271C4.36839 20.2553 4.2002 19.9867 3.87536 20.0165C3.87201 20.098 3.89078 20.2017 3.84708 20.2428C3.61333 20.1748 3.49107 19.9954 3.1682 20.0165C3.18467 20.1083 3.14897 20.1481 3.13998 20.2145C2.87099 20.1912 2.68862 20.0812 2.40446 20.0731C2.42087 20.1838 2.38018 20.2373 2.34796 20.2993C2.11342 20.2322 1.83944 20.2044 1.52753 20.2145C1.48665 20.2585 1.46808 20.3248 1.44268 20.3842C0.92484 20.3984 0.541464 20.3831 0 20.3842C0.298983 20.6887 0.725802 20.8655 1.15984 21.0349C1.21923 21.4092 1.68687 21.3753 1.98014 21.5158C2.00022 21.6207 1.93177 21.6371 1.95179 21.7421C2.16211 21.8053 2.38018 21.8606 2.63067 21.8835C2.67195 21.9331 2.61328 22.0541 2.60239 22.1381C2.77872 22.207 3.03537 22.1955 3.28133 22.1946C3.3465 22.2631 3.25252 22.332 3.25305 22.421C3.43299 22.5269 3.72817 22.4565 3.96028 22.4492C3.97767 22.5798 3.89676 22.612 3.90365 22.7321C4.1418 22.7948 4.38598 22.685 4.61088 22.6472C4.67506 22.6773 4.62164 22.825 4.63916 22.9018C4.91485 22.9041 5.10916 22.8249 5.31804 22.7604C5.39928 22.8163 5.3082 22.9369 5.31804 23.0149C5.58421 23.0076 5.75378 22.9037 5.96864 22.8452C6.03249 22.8663 5.97973 23.0038 5.99692 23.0715C6.24951 23.0981 6.68558 22.7996 6.81735 23.0715C7.02394 23.0236 7.21267 22.9576 7.43967 22.9301C7.49814 22.9471 7.54683 22.9739 7.52445 23.0715C7.74738 23.002 7.96978 22.9321 8.20333 22.8735C8.30177 22.8788 8.32913 22.9553 8.3731 23.0149C9.28619 22.695 10.5827 22.9774 11.3717 23.0998C10.9622 23.4087 10.5006 23.6373 9.90063 23.6372V23.7504C9.59056 23.7231 9.48622 23.9017 9.19347 23.8918C9.15672 24.0531 8.89357 23.9879 8.76914 24.0616C8.68409 24.0329 8.71907 24.1246 8.71257 24.1747C8.62759 24.2124 8.49621 24.2034 8.3731 24.203C8.32598 24.2592 8.37573 24.2389 8.3731 24.3161C8.26515 24.4069 7.91426 24.3059 8.03363 24.5424C7.95888 24.5997 7.77395 24.5467 7.69416 24.599C7.63253 24.6581 7.70833 24.6797 7.69416 24.7687C7.59375 24.8097 7.47281 24.8301 7.38303 24.8819C7.32994 24.9357 7.39983 24.933 7.38303 25.0233C7.2907 25.0913 7.16398 25.1249 7.07191 25.193C7.0513 25.2702 7.12808 25.25 7.12841 25.3062C7.0366 25.3841 6.91474 25.4319 6.81729 25.5042C6.76472 25.5542 6.82962 25.5868 6.84551 25.6457C6.47716 25.8996 6.31585 26.3606 5.96857 26.6358C6.40143 26.4973 6.81696 26.5004 7.15669 26.2963C7.26222 26.2663 7.20145 26.4024 7.29818 26.3812C7.49623 26.1484 7.79036 26.3499 7.94884 26.07C8.11435 26.1877 8.22072 26.0359 8.31653 25.9286C8.42219 25.8983 8.39719 25.9987 8.4863 25.9851C8.5472 25.8952 8.63901 25.8361 8.65594 25.7022C8.7616 25.672 8.73659 25.7725 8.82564 25.7588C8.88221 25.6644 8.97396 25.6054 8.99535 25.4759C9.08243 25.4548 9.04982 25.5536 9.13683 25.5325C9.17975 25.4434 9.2627 25.3944 9.27825 25.2778C9.336 25.2108 9.39014 25.3167 9.44796 25.2495C9.58551 24.9694 9.80896 24.9498 9.92879 24.6555C9.97958 24.6519 9.9885 24.6902 10.042 24.6838C10.4103 24.0809 10.8985 23.5979 11.513 23.2411C11.7137 25.0306 11.7993 27.4065 11.711 29.3513C11.6867 29.8862 11.6196 30.4607 11.2866 30.794C11.2446 31.0472 11.2379 31.4235 11.3715 31.586C12.0007 31.3362 11.8913 30.0295 12.0505 29.2664C12.0368 28.1089 12.0566 26.457 11.9658 24.9951Z" fill="#81AA66"/>
<path d="M37.4255 8.29994C37.6949 8.28647 38.2472 8.42791 39.0824 8.72426C39.5 8.87244 40.1129 8.98694 40.9211 9.06776C40.8807 9.06776 40.5103 8.91285 39.8098 8.60303C38.9612 8.22585 38.2068 7.84867 37.5467 7.47149C37.1022 7.21555 36.725 7.08758 36.4152 7.08758C36.1727 7.08758 36.0044 7.14146 35.9101 7.24922L36.1727 6.80469C35.6878 6.7104 35.2971 6.76428 35.0008 6.96634L35.1018 6.60263C34.6303 6.53528 34.2128 6.70366 33.849 7.10778C33.8086 6.83837 33.8558 6.64978 33.9905 6.54201C33.9501 6.52854 33.9164 6.52181 33.8895 6.52181C33.7009 6.58916 33.5055 6.69019 33.3035 6.8249C33.061 6.98655 32.9196 7.12799 32.8792 7.24922L32.859 6.92593C32.6704 7.04716 32.4885 7.1684 32.3134 7.28964C31.9497 7.59946 31.7678 7.90929 31.7678 8.21911L31.6264 7.8554C31.5186 7.99011 31.4109 8.12482 31.3031 8.25952C31.0741 8.6367 30.9865 9.06776 31.0404 9.55271C30.9596 9.53924 30.8653 9.3978 30.7575 9.12838C30.7171 9.20921 30.6834 9.2833 30.6565 9.35065C30.5757 9.56618 30.5353 9.78844 30.5353 10.0174C30.5353 10.3812 30.6363 10.7247 30.8384 11.048C30.7306 11.021 30.5891 10.9402 30.414 10.8055C30.3736 11.3847 30.6296 11.9033 31.1819 12.3613L30.7777 12.3007C30.8181 12.5028 30.8586 12.6442 30.899 12.7251C31.101 13.0888 31.4715 13.3918 32.0103 13.6343C31.7544 13.6478 31.5725 13.6343 31.4647 13.5939C31.4782 13.6747 31.559 13.7825 31.7072 13.9172C31.9766 14.1866 32.3538 14.3685 32.8387 14.4628L32.374 14.6648C32.5087 14.7457 32.6434 14.813 32.7781 14.8669C33.1418 15.0285 33.5055 15.1094 33.8693 15.1094L33.5055 15.3518C33.6941 15.4865 33.9433 15.5539 34.2532 15.5539C34.4013 15.5539 34.5563 15.5337 34.7179 15.4933L34.6169 15.6953C34.6169 15.7492 34.7785 15.7492 35.1018 15.6953C35.4251 15.628 35.6339 15.5674 35.7282 15.5135L35.6676 15.7155C36.5836 15.5943 37.4996 15.3114 38.4156 14.8669C38.2135 14.8669 38.025 14.8534 37.8498 14.8265C37.4457 14.7726 37.1426 14.685 36.9406 14.5638C36.5769 14.3348 36.3074 14.1462 36.1323 13.998C36.0919 14.0789 36.1189 14.227 36.2131 14.4426C36.065 14.1462 35.8629 13.7892 35.607 13.3716C35.5396 13.5198 35.5059 13.6343 35.5059 13.7151C35.4116 13.5131 35.2231 13.2235 34.9402 12.8463L34.8391 13.0888C34.8122 13.1022 34.6775 12.8059 34.435 12.1997L34.2734 12.5432C34.2734 12.3546 34.206 12.038 34.0713 11.5935L33.849 11.8158C33.9164 11.6407 33.9501 11.3645 33.9501 10.9873C33.8558 11.0143 33.7413 11.0547 33.6066 11.1086C33.7817 10.7987 33.8625 10.6102 33.849 10.5428C33.7278 10.5697 33.6066 10.6034 33.4853 10.6438C33.4853 10.6438 33.5796 10.5765 33.7682 10.4418C33.9568 10.3071 34.0444 10.1993 34.0309 10.1185L33.6672 10.0174C33.7884 10.004 33.9635 9.90295 34.1925 9.71436L33.8895 9.5325C34.0511 9.49209 34.3003 9.418 34.6371 9.31024C34.5967 9.29677 34.5091 9.24288 34.3744 9.14859C34.4148 9.14859 34.4552 9.14859 34.4956 9.14859C34.6977 9.17553 34.8728 9.16879 35.021 9.12838L34.7785 8.76467C34.9671 8.85897 35.2298 8.87917 35.5666 8.82529C35.5261 8.77141 35.4588 8.66364 35.3645 8.502C35.7147 8.55588 36.0313 8.57609 36.3142 8.56261L36.1525 8.27973C36.9608 8.2932 37.3851 8.29994 37.4255 8.29994ZM41.689 17.9988L42.1537 18.1201C42.1402 17.918 42.0931 17.7294 42.0123 17.5543C41.7698 17.0828 41.3118 16.6652 40.6383 16.3015C40.7864 16.3015 41.0087 16.3352 41.3051 16.4025C41.2916 16.3082 41.1906 16.1533 41.002 15.9378C40.6652 15.5741 40.1735 15.3047 39.5269 15.1296L40.1331 14.9275C39.958 14.8063 39.7694 14.6985 39.5673 14.6042C39.0824 14.3752 38.5907 14.2472 38.0923 14.2203L38.5773 13.9576C38.2809 13.769 37.9239 13.6747 37.5063 13.6747C37.2908 13.6747 37.0753 13.7017 36.8597 13.7556L36.9608 13.4929C36.2872 13.5198 35.7821 13.6411 35.4453 13.8566L35.4857 13.6141C34.233 13.9509 33.162 14.6177 32.273 15.6145C32.8522 15.372 33.3641 15.2508 33.8086 15.2508C34.1993 15.2508 34.7112 15.4124 35.3443 15.7357C35.3712 15.628 35.3039 15.4596 35.1422 15.2306C35.1557 15.2306 35.2904 15.399 35.5464 15.7357C35.8427 16.1264 36.0178 16.3487 36.0717 16.4025C36.1391 16.2005 36.166 16.059 36.1525 15.9782C36.3007 16.2207 36.5701 16.5709 36.9608 17.0289L37.0618 16.7258C37.1292 16.6989 37.3177 17.0895 37.6276 17.8978L37.8296 17.4735C37.8431 17.7294 37.9576 18.1739 38.1731 18.8071L38.4156 18.5444C38.3213 19.1236 38.3146 19.5412 38.3954 19.7972C38.5032 19.7567 38.6311 19.6961 38.7793 19.6153C38.685 19.8174 38.5907 20.1137 38.4964 20.5044C38.6715 20.4505 38.8197 20.3899 38.941 20.3225C38.941 20.336 38.8197 20.4505 38.5773 20.666C38.3482 20.8681 38.2405 21.0162 38.254 21.1105L38.6985 21.2318C38.5503 21.2857 38.3146 21.4204 37.9913 21.6359C38.099 21.7167 38.2203 21.7908 38.355 21.8582C38.3415 21.8312 37.9913 21.9188 37.3043 22.1208C37.3447 22.1478 37.4525 22.2151 37.6276 22.3229C37.641 22.3364 37.6478 22.3498 37.6478 22.3633C37.6478 22.3633 37.5602 22.3498 37.3851 22.3229C37.1292 22.296 36.9002 22.2892 36.6981 22.3027L36.981 22.7674C36.725 22.6327 36.3479 22.5856 35.8494 22.626C35.9033 22.7068 35.9841 22.8415 36.0919 23.0301C35.5666 22.9358 35.1422 22.8752 34.8189 22.8483L34.9806 23.212C34.4956 23.1446 33.9568 23.0368 33.3641 22.8887C32.9061 22.7674 32.2662 22.3364 31.4445 21.5955C30.1783 20.4235 29.5452 19.851 29.5452 19.878C29.6125 20.0531 29.9358 20.5111 30.5151 21.252C31.3233 22.2892 32.145 23.1446 32.9802 23.8181C33.6403 24.357 34.2128 24.6264 34.6977 24.6264C34.9267 24.6264 35.1018 24.5725 35.2231 24.4647C35.1422 24.586 35.021 24.7544 34.8593 24.9699C35.1153 25.0372 35.378 25.0709 35.6474 25.0709C35.9572 25.0709 36.2199 25.017 36.4354 24.9093L36.2536 25.3336C36.3344 25.3605 36.4556 25.374 36.6173 25.374C37.1022 25.374 37.5535 25.1989 37.9711 24.8487C37.9711 25.1719 37.8835 25.3942 37.7084 25.5155C37.9105 25.4885 38.1125 25.4616 38.3146 25.4346C38.7726 25.2999 39.0891 25.0777 39.2643 24.7678L39.244 25.1315C39.5 24.9968 39.7559 24.8621 40.0119 24.7274C40.5507 24.3368 40.8403 23.9326 40.8807 23.5151L41.002 23.9798C41.1636 23.7912 41.3253 23.6094 41.4869 23.4342C41.8102 22.9223 41.9449 22.3498 41.891 21.7167C41.9449 21.7302 41.9921 21.7571 42.0325 21.7975C42.1402 21.8918 42.2009 22.04 42.2143 22.2421C42.2547 22.1343 42.3019 22.0333 42.3558 21.939C42.4501 21.6426 42.4972 21.3463 42.4972 21.0499C42.4972 20.5785 42.3692 20.1339 42.1133 19.7163C42.248 19.7567 42.4231 19.8578 42.6387 20.0194C42.6656 19.8982 42.6454 19.6961 42.578 19.4132C42.4433 18.8879 42.147 18.4164 41.689 17.9988ZM46.554 18.5444C46.554 18.5444 46.5608 18.5511 46.5742 18.5646C46.5742 18.5511 46.5675 18.5444 46.554 18.5444ZM50.9792 19.7163L51.3227 19.8174C51.3092 19.6961 51.3025 19.5682 51.3025 19.4334C51.2082 19.1236 51.0128 18.8475 50.7165 18.605C50.8781 18.5376 51.033 18.5646 51.1812 18.6858C51.1812 18.605 51.1341 18.4636 51.0398 18.2615C50.8647 17.9382 50.5818 17.6957 50.1911 17.5341C50.4201 17.4667 50.575 17.4465 50.6559 17.4735C50.575 17.3657 50.4942 17.2579 50.4134 17.1502C50.1709 16.9212 49.8207 16.773 49.3627 16.7056L49.7264 16.5642C49.5513 16.2409 49.1808 16.0792 48.6151 16.0792C48.4534 16.0792 48.2783 16.0927 48.0897 16.1197C48.2648 15.9715 48.4197 15.8839 48.5544 15.857C48.3389 15.7492 48.1368 15.6953 47.9483 15.6953C47.6384 15.6953 47.3084 15.7964 46.9582 15.9984L47.1804 15.5337C47.1131 15.5202 46.9582 15.5606 46.7157 15.6549C46.325 15.7896 45.995 16.0119 45.7256 16.3217L45.7862 15.857C45.2878 16.086 45.0049 16.4497 44.9376 16.9481L44.7759 16.7865C44.749 16.7865 44.7153 16.9212 44.6749 17.1906C44.6345 17.4869 44.6479 17.7159 44.7153 17.8776L44.5334 17.7563C44.5334 18.1335 44.5806 18.5713 44.6749 19.0697C44.7557 19.4873 44.8365 19.9049 44.9174 20.3225C44.9982 20.0262 45.1935 19.622 45.5033 19.1101C45.5572 19.0428 45.7593 18.8677 46.1095 18.5848C45.9344 18.5444 45.793 18.5242 45.6852 18.5242C45.6852 18.5107 45.8132 18.4972 46.0691 18.4838C46.325 18.4703 46.4867 18.4905 46.554 18.5444C46.4597 18.4231 46.3857 18.3491 46.3318 18.3221C46.4261 18.2682 46.5473 18.3625 46.6955 18.605L46.6349 18.3423C46.7561 18.4501 46.8773 18.5848 46.9986 18.7464L47.0188 18.3625C47.0457 18.5107 47.1468 18.6791 47.3219 18.8677L47.4229 18.605C47.4094 18.7532 47.4633 18.9552 47.5845 19.2112C47.6519 19.1438 47.726 19.0563 47.8068 18.9485C47.7933 19.2718 47.8136 19.4604 47.8674 19.5143C47.9617 19.4334 48.0493 19.3391 48.1301 19.2314C48.1301 19.2314 48.1032 19.3055 48.0493 19.4536C47.9954 19.6018 47.9685 19.7231 47.9685 19.8174C47.9685 19.9117 47.9887 19.9857 48.0291 20.0396L48.3524 19.8578C48.2446 20.1407 48.2109 20.3494 48.2513 20.4842C48.3187 20.4707 48.4265 20.4303 48.5746 20.3629C48.5073 20.5246 48.4265 20.7468 48.3322 21.0297C48.3995 21.0028 48.4871 20.9691 48.5948 20.9287C48.5814 20.9556 48.5679 20.9893 48.5544 21.0297C48.4332 21.151 48.3524 21.2587 48.312 21.353L48.7565 21.3934C48.5948 21.3934 48.4534 21.5483 48.3322 21.8582C48.3995 21.8716 48.5208 21.8918 48.6959 21.9188C48.642 21.8918 48.4938 22.0737 48.2513 22.4643L48.5342 22.5452C48.4534 22.626 48.2446 22.8819 47.9078 23.313C47.6788 23.5959 47.2747 23.8114 46.6955 23.9596C46.4934 24.0539 46.1701 24.1212 45.7256 24.1616C45.3349 24.2021 45.1329 24.2088 45.1194 24.1819C45.1059 24.3031 45.5168 24.3637 46.352 24.3637C47.1333 24.3637 47.8203 24.2357 48.413 23.9798C49.2212 23.7239 49.5782 23.4006 49.4839 23.0099L49.7062 23.4342C50.0429 23.0705 50.1979 22.7472 50.1709 22.4643L50.4336 22.7472C50.4471 22.7338 50.4875 22.6731 50.5548 22.5654C50.6626 22.3903 50.7165 22.2084 50.7165 22.0198C50.7165 21.8716 50.6828 21.7235 50.6154 21.5753C50.7367 21.6157 50.8781 21.7369 51.0398 21.939C51.1475 21.7369 51.2014 21.5416 51.2014 21.353C51.2014 21.1644 51.1408 21.0028 51.0196 20.8681L51.2822 20.9893C51.2957 20.8277 51.3092 20.666 51.3227 20.5044C51.2957 20.1272 51.1812 19.8645 50.9792 19.7163ZM46.3318 29.7385C46.1701 29.496 46.0489 29.2401 45.9681 28.9707C45.9411 28.9841 45.894 29.0986 45.8266 29.3142C45.8536 29.0313 45.867 28.6743 45.867 28.2433C45.7458 28.3106 45.6717 28.378 45.6448 28.4453C45.6582 27.9738 45.6448 27.6303 45.6044 27.4148L45.4225 27.5563C45.4225 27.4485 45.4292 27.3003 45.4427 27.1117C45.4562 26.775 45.4629 26.5662 45.4629 26.4853L45.2204 26.7076C45.3552 26.3304 45.3888 25.9465 45.3215 25.5559L45.1194 25.7175C45.2811 25.3134 45.3417 24.9227 45.3013 24.5456C45.2204 24.586 45.1262 24.6399 45.0184 24.7072C45.18 24.2896 45.2474 23.9663 45.2204 23.7373L44.9174 24C45.1464 23.5824 45.2609 23.2254 45.2609 22.9291C45.2609 22.8617 45.2541 22.8011 45.2407 22.7472L44.9578 22.9291C45.1194 22.5654 45.1935 22.2151 45.18 21.8784L44.8972 22.0804C44.978 21.8245 45.0588 21.454 45.1396 20.9691C45.0857 21.0365 45.0117 21.1105 44.9174 21.1914C44.9308 21.1375 44.9443 21.0836 44.9578 21.0297C45.0655 20.8142 45.1329 20.6054 45.1598 20.4033L44.7961 20.5448C44.8635 20.4774 44.951 20.1945 45.0588 19.6961C44.951 19.75 44.85 19.8039 44.7557 19.8578C44.8769 19.4671 44.9376 19.1438 44.9376 18.8879L44.6951 19.0293C44.7624 18.5444 44.7894 18.1403 44.7759 17.817C44.7624 17.6418 44.85 17.1098 45.0386 16.2207C45.1059 15.8974 45.1262 15.3182 45.0992 14.483C45.0319 14.8871 44.9578 15.2508 44.8769 15.5741C44.6614 16.4227 44.4055 17.1434 44.1091 17.7361C43.8801 18.1941 43.7656 18.5578 43.7656 18.8273C43.7656 18.9889 43.7993 19.1034 43.8666 19.1708L43.5433 18.9081C43.4221 19.3122 43.4019 19.6355 43.4827 19.878L43.2201 19.7163C43.1662 19.851 43.1392 19.9992 43.1392 20.1609C43.1392 20.3629 43.1864 20.565 43.2807 20.767C43.0786 20.6997 42.9574 20.6054 42.917 20.4842C42.8631 20.6323 42.8361 20.7805 42.8361 20.9287C42.8361 21.1173 42.8833 21.2722 42.9776 21.3934L42.7553 21.2924C42.661 21.7908 42.7082 22.1613 42.8968 22.4037L42.6341 22.2623C42.5398 22.5991 42.6071 22.9762 42.8361 23.3938C42.7688 23.3938 42.661 23.3265 42.5128 23.1918C42.4185 23.5959 42.5196 24.0135 42.8159 24.4445C42.6408 24.3906 42.5263 24.3368 42.4724 24.2829C42.4455 24.6331 42.5937 25.017 42.917 25.4346L42.6341 25.3134C42.5533 25.6367 42.7351 26.0543 43.1796 26.5662C43.0988 26.5392 42.9776 26.4786 42.8159 26.3843C42.8159 26.7211 43.0315 27.0983 43.4625 27.5158L43.0584 27.4552C43.1392 27.6438 43.4154 27.9941 43.8869 28.5059L43.5231 28.4655C43.6713 28.6676 43.934 28.9303 44.3112 29.2536L44.1495 29.3344C44.4728 29.6038 44.7692 29.7722 45.0386 29.8395L44.8972 29.9406C45.5168 30.3043 46.1567 30.4861 46.8167 30.4861C47.0188 30.4861 47.2074 30.4659 47.3825 30.4255C47.2208 30.3851 47.0727 30.3245 46.938 30.2437C46.6147 30.0955 46.4126 29.9271 46.3318 29.7385ZM55.5793 23.8586C55.5524 23.5218 55.5524 23.185 55.5793 22.8483C55.5389 22.8483 55.4312 22.956 55.256 23.1716C55.4042 22.8752 55.5726 22.4845 55.7612 21.9996C55.6804 22.0131 55.5659 22.0602 55.4177 22.141C55.6198 21.6696 55.714 21.2857 55.7006 20.9893L55.4581 21.1105C55.6467 20.4909 55.7545 20.0935 55.7814 19.9184L55.4177 20.1204C55.6871 19.7163 55.8151 19.292 55.8016 18.8475L55.5187 18.9889C55.8016 18.5713 55.9296 18.147 55.9026 17.7159L55.64 17.817C55.5995 17.8304 55.5659 17.8439 55.5389 17.8574C55.7949 17.4128 55.9094 17.0559 55.8824 16.7865L55.5187 17.0693C55.842 16.5979 56.0037 16.1937 56.0037 15.857C56.0037 15.7896 55.9969 15.729 55.9835 15.6751L55.5995 15.857C55.8151 15.4529 55.9094 15.0555 55.8824 14.6648L55.5389 14.8871C55.7275 14.3079 55.8083 13.8835 55.7814 13.6141C55.714 13.7084 55.6332 13.796 55.5389 13.8768C55.5255 13.8903 55.512 13.897 55.4985 13.897C55.4985 13.897 55.5322 13.8094 55.5995 13.6343C55.6804 13.4053 55.7275 13.1831 55.741 12.9675L55.3167 13.1696C55.4783 12.9541 55.5322 12.624 55.4783 12.1795C55.3705 12.2603 55.2628 12.3344 55.155 12.4018C55.2358 11.9168 55.2358 11.5464 55.155 11.2904L54.9125 11.4925C54.8991 11.2365 54.8048 10.7987 54.6297 10.1791C54.5354 9.97703 54.4613 9.70762 54.4074 9.37085C54.2996 8.87244 54.2323 8.56935 54.2053 8.46158C54.1245 8.13829 53.8012 7.61967 53.2354 6.90572C53.6934 7.68702 53.9224 8.53567 53.9224 9.45168C53.9224 9.66721 53.882 9.96356 53.8012 10.3407C53.7204 10.7045 53.68 10.9806 53.68 11.1692C53.68 11.506 53.7608 11.7282 53.9224 11.836L53.4577 11.6339C53.3904 12.0515 53.4308 12.3748 53.5789 12.6038L53.2354 12.4826C53.1277 12.8059 53.195 13.1561 53.4375 13.5333C53.3163 13.5063 53.1546 13.4188 52.9526 13.2706C52.8313 13.6478 52.8852 13.9509 53.1142 14.1799L52.8515 14.0789C52.7572 14.5773 52.8246 14.9544 53.0536 15.2104L52.7303 15.0487C52.6091 15.399 52.6764 15.7896 52.9324 16.2207C52.7842 16.2207 52.6629 16.1466 52.5686 15.9984C52.5282 16.0927 52.508 16.2072 52.508 16.3419C52.508 16.6518 52.6158 16.975 52.8313 17.3118C52.6158 17.231 52.4811 17.1636 52.4272 17.1098C52.3464 17.433 52.4878 17.8439 52.8515 18.3423L52.4878 18.1807C52.4609 18.2346 52.4474 18.3154 52.4474 18.4231C52.4474 18.733 52.6225 19.1169 52.9728 19.5749C52.865 19.521 52.7236 19.4334 52.5484 19.3122C52.4811 19.6624 52.6562 20.0935 53.0738 20.6054L52.6091 20.4639C52.7168 20.7334 52.9526 21.151 53.3163 21.7167L52.8919 21.5955C52.9054 21.6898 52.9324 21.7908 52.9728 21.8986C53.094 22.141 53.2759 22.37 53.5183 22.5856L53.2961 22.626C53.4442 22.8146 53.7137 23.0705 54.1043 23.3938L53.9022 23.4544C54.5219 24.1549 55.2695 24.7476 56.1451 25.2326C56.1316 25.2326 56.0306 25.0574 55.842 24.7072C55.6534 24.3704 55.5659 24.0876 55.5793 23.8586ZM61.2309 12.7251C61.15 12.7116 61.0625 12.6442 60.9682 12.523C60.9412 12.4691 60.9143 12.3613 60.8874 12.1997C60.8604 12.2266 60.82 12.3277 60.7661 12.5028C60.8469 12.1391 60.8806 11.9303 60.8672 11.8764C60.8402 11.9303 60.7998 12.0111 60.7459 12.1189C60.7729 11.8899 60.7661 11.7552 60.7257 11.7148L60.6247 11.9168C60.6247 11.7956 60.6179 11.6676 60.6045 11.5329L60.463 11.7956C60.5169 11.5666 60.5169 11.4453 60.463 11.4319L60.3418 11.6339C60.4092 11.4184 60.4092 11.3039 60.3418 11.2904L60.1802 11.5329C60.2206 11.3443 60.2273 11.2567 60.2004 11.2702L60.0387 11.4925C60.1465 11.2365 60.1599 11.122 60.0791 11.149L59.8973 11.3712C59.9511 11.2231 59.9579 11.149 59.9175 11.149L59.7154 11.3308C59.7558 11.1961 59.7558 11.122 59.7154 11.1086C59.6885 11.149 59.6481 11.1961 59.5942 11.25C59.6481 11.1961 59.6548 11.1355 59.6144 11.0682L59.3517 11.2904C59.446 11.1961 59.4595 11.1288 59.3921 11.0884C59.3517 11.1153 59.2844 11.1625 59.1901 11.2298C59.2035 11.1355 59.1766 11.0816 59.1092 11.0682L58.9476 11.1894C58.9206 11.149 58.8398 11.0884 58.7051 11.0075C58.6243 10.9671 58.5569 10.8594 58.5031 10.6842C58.4896 10.6169 58.3414 10.5091 58.0585 10.3609C58.1528 10.4687 58.2 10.6102 58.2 10.7853C58.2 10.893 58.1663 11.021 58.0989 11.1692C58.045 11.3174 58.0181 11.4184 58.0181 11.4723C58.0181 11.58 58.0922 11.6205 58.2404 11.5935L57.8969 11.6945C57.8969 11.7619 57.971 11.8293 58.1191 11.8966L57.8565 12.0178C57.8295 12.1525 57.9373 12.2064 58.1798 12.1795C58.0181 12.2738 57.8901 12.3277 57.7958 12.3411C57.7958 12.4489 57.8497 12.5028 57.9575 12.5028C57.9979 12.5028 58.045 12.4893 58.0989 12.4624L57.9171 12.5836C57.9575 12.6914 58.0316 12.7453 58.1393 12.7453C58.1798 12.7453 58.2336 12.7318 58.301 12.7048L58.0787 12.8463C58.1057 12.981 58.2404 13.0079 58.4828 12.9271C58.4424 12.981 58.3549 13.0416 58.2202 13.109C58.2336 13.1898 58.2943 13.2302 58.402 13.2302C58.4828 13.2302 58.5839 13.2033 58.7051 13.1494C58.6378 13.2167 58.5502 13.2908 58.4424 13.3716C58.4963 13.4794 58.6647 13.4457 58.9476 13.2706L58.7455 13.4727C58.7455 13.5131 58.7725 13.5333 58.8263 13.5333C58.9206 13.5333 59.0688 13.4727 59.2709 13.3514C59.217 13.4053 59.1362 13.4861 59.0284 13.5939C59.0688 13.6882 59.2305 13.6343 59.5134 13.4323L59.2709 13.7151C59.3382 13.7151 59.5134 13.6343 59.7962 13.4727L59.5942 13.7151C59.7019 13.6747 59.8366 13.6006 59.9983 13.4929L59.9175 13.6545C59.9983 13.6006 60.133 13.4929 60.3216 13.3312L60.2408 13.4727C60.591 13.2302 60.921 12.981 61.2309 12.7251ZM61.3723 21.4338L61.0086 21.5147C61.2511 21.2048 61.3588 20.9556 61.3319 20.767L60.9682 20.9489C61.2511 20.6391 61.3925 20.3697 61.3925 20.1407C61.3925 20.0868 61.3858 20.0329 61.3723 19.979L61.0086 20.1204C61.1972 19.8376 61.2645 19.5749 61.2107 19.3324L60.8874 19.4739C61.0221 19.0967 61.0759 18.8205 61.049 18.6454C61.0221 18.6858 60.948 18.7464 60.8267 18.8273C60.8267 18.7869 60.8335 18.7532 60.8469 18.7262C60.9412 18.5511 60.9817 18.3895 60.9682 18.2413L60.5641 18.3827C60.7122 18.248 60.7594 18.0392 60.7055 17.7563C60.5843 17.8102 60.4765 17.8574 60.3822 17.8978C60.4496 17.6553 60.4496 17.4263 60.3822 17.2108L60.1195 17.3522C60.0791 17.1232 60.005 16.8471 59.8973 16.5238C59.8569 16.4295 59.803 16.059 59.7356 15.4124C59.7087 15.143 59.5403 14.7591 59.2305 14.2607C59.2978 14.584 59.3315 14.9208 59.3315 15.271C59.3315 15.7694 59.2439 16.214 59.0688 16.6046C58.9611 16.8336 58.9072 17.0289 58.9072 17.1906C58.9072 17.3926 58.988 17.5206 59.1496 17.5745L58.6647 17.4533C58.6108 17.7361 58.658 17.9517 58.8061 18.0998L58.4626 18.019C58.3549 18.248 58.4357 18.4703 58.7051 18.6858C58.4761 18.6724 58.3145 18.6252 58.2202 18.5444C58.1124 18.7869 58.1798 18.9754 58.4222 19.1101L58.1393 19.0697C58.0855 19.3796 58.1798 19.6086 58.4222 19.7567L58.0989 19.6759C58.0046 19.878 58.0922 20.107 58.3616 20.3629C58.2 20.3629 58.072 20.3225 57.9777 20.2417C57.8699 20.4572 57.9777 20.7064 58.301 20.9893C58.0855 20.9354 57.944 20.8883 57.8767 20.8479C57.8093 21.023 57.9508 21.2655 58.301 21.5753L57.9575 21.4338C57.9305 21.4608 57.9171 21.5012 57.9171 21.5551C57.9171 21.7167 58.0585 21.939 58.3414 22.2219C58.2471 22.1815 58.1191 22.1074 57.9575 21.9996C57.8767 22.1343 57.9844 22.3768 58.2808 22.727L57.8565 22.4845C57.8969 22.6193 58.0114 22.8483 58.2 23.1716L57.8969 22.9089C57.9238 22.9089 57.971 23.0975 58.0383 23.4746L57.8767 23.2928C57.8901 23.6026 57.8901 23.8586 57.8767 24.0606L57.7756 23.8788C57.6409 24.5254 57.257 25.1315 56.6239 25.6973C56.8933 25.63 57.3176 25.5491 57.8969 25.4548C57.9373 25.4548 58.2471 25.4144 58.8263 25.3336C58.7725 25.2797 58.6647 25.2056 58.5031 25.1113C59.0553 25.2595 59.446 25.2528 59.675 25.0911C59.6211 25.0372 59.5336 24.9699 59.4123 24.8891C59.5336 24.8891 59.6952 24.8284 59.8973 24.7072C60.1802 24.5456 60.3755 24.3637 60.4832 24.1616L60.2004 24.1212C60.2273 24.1212 60.3553 23.9933 60.5843 23.7373C60.8267 23.4679 60.9614 23.2861 60.9884 23.1918L60.6045 23.2524C60.7122 23.185 60.8065 23.1042 60.8874 23.0099C61.0625 22.7809 61.1635 22.5452 61.1905 22.3027L60.9076 22.3633C61.2174 22.0804 61.3723 21.7706 61.3723 21.4338ZM58.8822 30.4457C58.8822 30.4457 58.8755 30.4524 58.862 30.4659C58.862 30.4524 58.8688 30.4457 58.8822 30.4457ZM68.9044 8.13829C68.5676 7.9497 68.1501 7.8554 67.6516 7.8554C67.3688 7.8554 67.1061 7.88235 66.8636 7.93623C66.6211 7.99011 66.5134 8.03052 66.5403 8.05746C66.5403 8.09788 66.7626 8.14502 67.2071 8.19891C66.8569 8.17196 66.4932 8.23932 66.116 8.40097C65.5098 8.67038 65.0855 9.02735 64.843 9.47188C65.0046 9.52577 65.1326 9.52577 65.2269 9.47188C65.2 9.43147 65.0383 9.65374 64.742 10.1387C64.4187 10.6775 64.2301 11.1422 64.1762 11.5329L64.4591 11.3915C64.4456 11.4049 64.3513 11.7013 64.1762 12.2805C63.9876 12.9002 63.8866 13.2976 63.8731 13.4727L64.2368 13.1696C63.9405 13.8431 63.8058 14.5503 63.8327 15.2912L64.1156 15.0487C63.8462 15.7492 63.7317 16.4362 63.7721 17.1098C63.8394 17.0693 63.9001 17.0289 63.9539 16.9885L64.0348 16.9279C64.0752 16.901 64.1089 16.8808 64.1358 16.8673C63.9203 17.5812 63.8327 18.1403 63.8731 18.5444L64.2166 18.0796C63.9607 18.7801 63.8327 19.3728 63.8327 19.8578C63.8327 19.9925 63.8394 20.1137 63.8529 20.2215L64.2166 19.8982C64.028 20.5313 63.9472 21.1105 63.9741 21.6359L64.3176 21.3126C64.2234 21.7167 64.1223 22.3162 64.0146 23.1109C64.055 23.0436 64.1493 22.9223 64.2974 22.7472C64.3109 22.7338 64.3176 22.727 64.3176 22.727H64.3379C64.3379 22.727 64.284 22.8685 64.1762 23.1513C64.0819 23.4342 64.0146 23.7171 63.9741 24L64.4389 23.7575C64.3446 23.8788 64.2031 24.3098 64.0146 25.0507L64.3985 24.8487C64.2907 25.1315 64.1358 25.603 63.9337 26.2631L64.2772 26.1216C64.156 26.4584 63.8933 27.0107 63.4892 27.7785C63.1255 28.3173 62.4452 28.836 61.4484 29.3344C60.4381 29.8328 59.5827 30.2032 58.8822 30.4457C59.8117 30.2437 60.465 30.0753 60.8422 29.9406C62.1623 29.523 63.2669 28.9707 64.156 28.2837C64.9912 27.5024 65.4088 26.8423 65.4088 26.3035C65.4088 26.1284 65.3886 26.0273 65.3482 26.0004L65.6917 26.4853C65.9207 26.0004 66.0352 25.5357 66.0352 25.0911C66.0352 24.9968 66.0284 24.9093 66.0149 24.8284L66.318 25.0911C66.4258 24.8082 66.4797 24.4984 66.4797 24.1616C66.4797 23.8788 66.4393 23.6026 66.3585 23.3332C66.6009 23.4275 66.7491 23.5757 66.803 23.7777C66.8838 23.5487 66.9242 23.2928 66.9242 23.0099C66.9242 22.7136 66.8636 22.4643 66.7424 22.2623L67.005 22.4239C67.1128 21.6022 67.0455 21.0095 66.803 20.6458L67.1263 20.8479C67.234 20.2821 67.1398 19.6759 66.8434 19.0293C67.032 19.0293 67.1667 19.1304 67.2475 19.3324C67.3553 18.7128 67.2273 18.0662 66.8636 17.3926C67.0926 17.4869 67.234 17.5745 67.2879 17.6553C67.3418 17.1569 67.1802 16.5642 66.803 15.8772L67.1465 16.0995C67.1734 16.0321 67.1869 15.9378 67.1869 15.8166C67.1869 15.372 67.0118 14.8063 66.6615 14.1193C66.7558 14.2001 66.8905 14.3281 67.0657 14.5032C67.1465 14.0721 67.0118 13.4727 66.6615 12.7048L67.1061 12.9675C67.0522 12.5095 66.9377 11.9303 66.7626 11.2298L67.0859 11.5329C67.1532 11.1827 67.133 10.7516 67.0252 10.2397L67.2273 10.3609C67.2273 9.92989 67.3081 9.59986 67.4698 9.37085L67.5304 9.55271C67.8402 9.22941 68.3723 9.06776 69.1267 9.06776C69.7329 9.06776 70.4737 9.17553 71.3493 9.39106C70.8779 9.10818 70.0629 8.69059 68.9044 8.13829ZM70.6623 15.958C70.3525 15.9176 70.1437 15.8772 70.0359 15.8368C70.0359 15.8637 70.0966 15.9647 70.2178 16.1399C70.0427 15.9782 69.8002 15.8031 69.4904 15.6145C69.5173 15.7357 69.5443 15.8233 69.5712 15.8772C69.2883 15.7021 69.0593 15.6212 68.8842 15.6347L68.9448 15.8166C68.7562 15.7357 68.5138 15.6482 68.2174 15.5539L68.3386 15.8368C68.0962 15.6347 67.8402 15.5472 67.5708 15.5741L67.6718 15.7964C67.4024 15.5943 67.1398 15.5067 66.8838 15.5337L66.9848 15.8166C66.702 15.6549 66.4864 15.5876 66.3382 15.6145L66.5201 15.8974C66.2507 15.6953 66.0149 15.5943 65.8129 15.5943C65.759 15.5943 65.7051 15.601 65.6512 15.6145L65.7927 15.8974C65.5637 15.7627 65.3212 15.7155 65.0653 15.756L65.2269 16.0186C64.8767 15.9109 64.6207 15.8705 64.4591 15.8974C64.513 15.9513 64.5669 16.0119 64.6207 16.0792C64.5938 16.0792 64.5601 16.0725 64.5197 16.059C64.3581 16.0052 64.2099 15.9782 64.0752 15.9782L64.2166 16.3217C64.0819 16.2005 63.8798 16.1668 63.6104 16.2207C63.6643 16.3015 63.7182 16.3823 63.7721 16.4632C63.4757 16.4227 63.2602 16.4362 63.1255 16.5036L63.2467 16.6854C62.9773 16.7393 62.7281 16.8269 62.4991 16.9481C62.297 17.002 61.9603 17.0963 61.4888 17.231C61.2194 17.3253 60.9096 17.5408 60.5593 17.8776C60.5593 17.8641 60.7008 17.8035 60.9837 17.6957C61.3474 17.5745 61.6841 17.5139 61.994 17.5139C62.1287 17.5139 62.3105 17.5476 62.5395 17.6149C62.782 17.6688 62.9638 17.6957 63.0851 17.6957C63.3141 17.6957 63.4555 17.6216 63.5094 17.4735L63.4084 17.8574C63.6643 17.8843 63.8596 17.8372 63.9943 17.7159L63.9337 17.9988C64.1358 18.0796 64.3379 18.0056 64.5399 17.7766C64.5264 17.9651 64.486 18.0998 64.4187 18.1807C64.6342 18.248 64.8093 18.1874 64.944 17.9988L64.8834 18.2211C65.1932 18.2615 65.4088 18.1807 65.53 17.9786L65.4694 18.2413C65.6714 18.3221 65.8937 18.2413 66.1362 17.9988C66.1497 18.1335 66.116 18.2413 66.0352 18.3221C66.2642 18.4029 66.5134 18.3019 66.7828 18.019C66.7424 18.1941 66.7087 18.3086 66.6817 18.3625C66.8838 18.4029 67.1195 18.2682 67.389 17.9584L67.2879 18.2413C67.4765 18.3491 67.7459 18.2076 68.0962 17.817C68.0423 17.9651 67.9951 18.0796 67.9547 18.1605C68.1568 18.2009 68.406 18.0527 68.7023 17.7159L68.6215 18.0998C68.7697 18.019 69.0054 17.8372 69.3287 17.5543L69.2681 17.8776C69.3489 17.8776 69.5375 17.7227 69.8339 17.4128L69.8541 17.6149C69.9619 17.5071 70.1168 17.3253 70.3188 17.0693L70.339 17.231C70.7027 16.8673 71.1069 16.3958 71.5514 15.8166C71.1607 15.9378 70.8644 15.985 70.6623 15.958ZM67.1896 30.4457C67.1896 30.4457 67.1828 30.4524 67.1694 30.4659C67.1694 30.4524 67.1761 30.4457 67.1896 30.4457ZM77.2118 8.13829C76.875 7.9497 76.4574 7.8554 75.959 7.8554C75.6761 7.8554 75.4134 7.88235 75.171 7.93623C74.9285 7.99011 74.8207 8.03052 74.8477 8.05746C74.8477 8.09788 75.0699 8.14502 75.5145 8.19891C75.1642 8.17196 74.8005 8.23932 74.4233 8.40097C73.8171 8.67038 73.3928 9.02735 73.1504 9.47188C73.312 9.52577 73.44 9.52577 73.5343 9.47188C73.5073 9.43147 73.3457 9.65374 73.0493 10.1387C72.726 10.6775 72.5374 11.1422 72.4836 11.5329L72.7664 11.3915C72.753 11.4049 72.6587 11.7013 72.4836 12.2805C72.295 12.9002 72.1939 13.2976 72.1805 13.4727L72.5442 13.1696C72.2478 13.8431 72.1131 14.5503 72.1401 15.2912L72.4229 15.0487C72.1535 15.7492 72.039 16.4362 72.0794 17.1098C72.1468 17.0693 72.2074 17.0289 72.2613 16.9885L72.3421 16.9279C72.3825 16.901 72.4162 16.8808 72.4431 16.8673C72.2276 17.5812 72.1401 18.1403 72.1805 18.5444L72.524 18.0796C72.268 18.7801 72.1401 19.3728 72.1401 19.8578C72.1401 19.9925 72.1468 20.1137 72.1603 20.2215L72.524 19.8982C72.3354 20.5313 72.2546 21.1105 72.2815 21.6359L72.625 21.3126C72.5307 21.7167 72.4297 22.3162 72.3219 23.1109C72.3623 23.0436 72.4566 22.9223 72.6048 22.7472C72.6183 22.7338 72.625 22.727 72.625 22.727H72.6452C72.6452 22.727 72.5913 22.8685 72.4836 23.1513C72.3893 23.4342 72.3219 23.7171 72.2815 24L72.7462 23.7575C72.6519 23.8788 72.5105 24.3098 72.3219 25.0507L72.7058 24.8487C72.5981 25.1315 72.4431 25.603 72.2411 26.2631L72.5846 26.1216C72.4633 26.4584 72.2007 27.0107 71.7965 27.7785C71.4328 28.3173 70.7526 28.836 69.7557 29.3344C68.7454 29.8328 67.8901 30.2032 67.1896 30.4457C68.1191 30.2437 68.7724 30.0753 69.1496 29.9406C70.4697 29.523 71.5743 28.9707 72.4633 28.2837C73.2985 27.5024 73.7161 26.8423 73.7161 26.3035C73.7161 26.1284 73.6959 26.0273 73.6555 26.0004L73.999 26.4853C74.228 26.0004 74.3425 25.5357 74.3425 25.0911C74.3425 24.9968 74.3358 24.9093 74.3223 24.8284L74.6254 25.0911C74.7332 24.8082 74.787 24.4984 74.787 24.1616C74.787 23.8788 74.7466 23.6026 74.6658 23.3332C74.9083 23.4275 75.0565 23.5757 75.1103 23.7777C75.1912 23.5487 75.2316 23.2928 75.2316 23.0099C75.2316 22.7136 75.171 22.4643 75.0497 22.2623L75.3124 22.4239C75.4202 21.6022 75.3528 21.0095 75.1103 20.6458L75.4336 20.8479C75.5414 20.2821 75.4471 19.6759 75.1507 19.0293C75.3393 19.0293 75.474 19.1304 75.5549 19.3324C75.6626 18.7128 75.5347 18.0662 75.171 17.3926C75.4 17.4869 75.5414 17.5745 75.5953 17.6553C75.6492 17.1569 75.4875 16.5642 75.1103 15.8772L75.4538 16.0995C75.4808 16.0321 75.4942 15.9378 75.4942 15.8166C75.4942 15.372 75.3191 14.8063 74.9689 14.1193C75.0632 14.2001 75.1979 14.3281 75.373 14.5032C75.4538 14.0721 75.3191 13.4727 74.9689 12.7048L75.4134 12.9675C75.3595 12.5095 75.245 11.9303 75.0699 11.2298L75.3932 11.5329C75.4606 11.1827 75.4404 10.7516 75.3326 10.2397L75.5347 10.3609C75.5347 9.92989 75.6155 9.59986 75.7771 9.37085L75.8378 9.55271C76.1476 9.22941 76.6797 9.06776 77.434 9.06776C78.0402 9.06776 78.7811 9.17553 79.6567 9.39106C79.1852 9.10818 78.3702 8.69059 77.2118 8.13829ZM78.9697 15.958C78.6599 15.9176 78.4511 15.8772 78.3433 15.8368C78.3433 15.8637 78.4039 15.9647 78.5251 16.1399C78.35 15.9782 78.1076 15.8031 77.7977 15.6145C77.8247 15.7357 77.8516 15.8233 77.8786 15.8772C77.5957 15.7021 77.3667 15.6212 77.1916 15.6347L77.2522 15.8166C77.0636 15.7357 76.8211 15.6482 76.5248 15.5539L76.646 15.8368C76.4035 15.6347 76.1476 15.5472 75.8782 15.5741L75.9792 15.7964C75.7098 15.5943 75.4471 15.5067 75.1912 15.5337L75.2922 15.8166C75.0093 15.6549 74.7938 15.5876 74.6456 15.6145L74.8274 15.8974C74.558 15.6953 74.3223 15.5943 74.1202 15.5943C74.0664 15.5943 74.0125 15.601 73.9586 15.6145L74.1 15.8974C73.871 15.7627 73.6286 15.7155 73.3726 15.756L73.5343 16.0186C73.184 15.9109 72.9281 15.8705 72.7664 15.8974C72.8203 15.9513 72.8742 16.0119 72.9281 16.0792C72.9011 16.0792 72.8675 16.0725 72.8271 16.059C72.6654 16.0052 72.5172 15.9782 72.3825 15.9782L72.524 16.3217C72.3893 16.2005 72.1872 16.1668 71.9178 16.2207C71.9717 16.3015 72.0256 16.3823 72.0794 16.4632C71.7831 16.4227 71.5675 16.4362 71.4328 16.5036L71.5541 16.6854C71.2847 16.7393 71.0355 16.8269 70.8065 16.9481C70.6044 17.002 70.2676 17.0963 69.7962 17.231C69.5267 17.3253 69.2169 17.5408 68.8667 17.8776C68.8667 17.8641 69.0081 17.8035 69.291 17.6957C69.6547 17.5745 69.9915 17.5139 70.3013 17.5139C70.436 17.5139 70.6179 17.5476 70.8469 17.6149C71.0893 17.6688 71.2712 17.6957 71.3924 17.6957C71.6214 17.6957 71.7629 17.6216 71.8168 17.4735L71.7157 17.8574C71.9717 17.8843 72.167 17.8372 72.3017 17.7159L72.2411 17.9988C72.4431 18.0796 72.6452 18.0056 72.8473 17.7766C72.8338 17.9651 72.7934 18.0998 72.726 18.1807C72.9416 18.248 73.1167 18.1874 73.2514 17.9988L73.1908 18.2211C73.5006 18.2615 73.7161 18.1807 73.8374 17.9786L73.7767 18.2413C73.9788 18.3221 74.2011 18.2413 74.4435 17.9988C74.457 18.1335 74.4233 18.2413 74.3425 18.3221C74.5715 18.4029 74.8207 18.3019 75.0901 18.019C75.0497 18.1941 75.016 18.3086 74.9891 18.3625C75.1912 18.4029 75.4269 18.2682 75.6963 17.9584L75.5953 18.2413C75.7839 18.3491 76.0533 18.2076 76.4035 17.817C76.3496 17.9651 76.3025 18.0796 76.2621 18.1605C76.4641 18.2009 76.7133 18.0527 77.0097 17.7159L76.9289 18.0998C77.0771 18.019 77.3128 17.8372 77.6361 17.5543L77.5755 17.8776C77.6563 17.8776 77.8449 17.7227 78.1412 17.4128L78.1614 17.6149C78.2692 17.5071 78.4241 17.3253 78.6262 17.0693L78.6464 17.231C79.0101 16.8673 79.4142 16.3958 79.8587 15.8166C79.4681 15.9378 79.1717 15.985 78.9697 15.958Z" fill="#1E0702"/>
</svg>
