<svg width="18" height="18" viewBox="0 0 18 18" fill="none" xmlns="http://www.w3.org/2000/svg">
<path d="M12.1302 11.7502C13.2809 10.5044 13.9988 8.83637 13.9988 6.99942C13.9988 3.14603 10.8633 0 6.99942 0C3.13549 0 0 3.14603 0 6.99942C0 10.8528 3.13549 13.9988 6.99942 13.9988C8.57245 13.9988 10.0188 13.4815 11.1906 12.6053L16.3953 17.81C16.522 17.9367 16.6803 18 16.8387 18C16.9971 18 17.166 17.9367 17.2821 17.81C17.5249 17.5671 17.5249 17.166 17.2821 16.9126L12.1302 11.7502ZM1.26686 6.99942C1.26686 3.84281 3.83226 1.26686 6.99942 1.26686C10.156 1.26686 12.732 3.83226 12.732 6.99942C12.732 10.1666 10.1666 12.732 6.99942 12.732C3.83226 12.732 1.26686 10.156 1.26686 6.99942Z" fill="#999999"/>
</svg>
