<svg width="40" height="40" viewBox="0 0 40 40" fill="none" xmlns="http://www.w3.org/2000/svg">
<g clip-path="url(#clip0_6_1711)">
<path d="M32.8906 17.6562C32.8906 18.3035 32.366 18.8281 31.7188 18.8281C31.0715 18.8281 30.5469 18.3035 30.5469 17.6562C30.5469 17.009 31.0715 16.4844 31.7188 16.4844C32.366 16.4844 32.8906 17.009 32.8906 17.6562Z" fill="#5489B1"/>
<path d="M32.8906 34.1406C32.8906 34.7879 32.366 35.3125 31.7188 35.3125C31.0715 35.3125 30.5469 34.7879 30.5469 34.1406C30.5469 33.4933 31.0715 32.9688 31.7188 32.9688C32.366 32.9688 32.8906 33.4933 32.8906 34.1406Z" fill="#5489B1"/>
<path d="M38.8281 18.8281C39.4754 18.8281 40 18.3035 40 17.6562C40 17.009 39.4754 16.4844 38.8281 16.4844H37.6562V12.9688C37.6562 12.3215 37.1317 11.7969 36.4844 11.7969H30.0992L28.2031 8.00476V1.17188C28.2031 0.524597 27.6785 0 27.0312 0H22.2656C21.6183 0 21.0938 0.524597 21.0938 1.17188V8.00476L18.8736 12.4448C18.7988 12.5943 18.75 12.789 18.75 12.9688V38.8281C18.75 39.4754 19.2746 40 19.9219 40H36.4844C37.1317 40 37.6562 39.4754 37.6562 38.8281V23.5156H38.8281C39.4754 23.5156 40 22.991 40 22.3438C40 21.6965 39.4754 21.1719 38.8281 21.1719H37.6562V18.8281H38.8281ZM21.0938 18.8281H25.8594V32.9688H21.0938V18.8281ZM22.9898 9.45312H26.3071L27.4789 11.7969H21.8179L22.9898 9.45312ZM25.8594 2.34375V7.10938H23.4375V2.34375H25.8594ZM35.3125 37.6562H21.0938V35.3125H27.0312C27.6785 35.3125 28.2031 34.7879 28.2031 34.1406V17.6562C28.2031 17.009 27.6785 16.4844 27.0312 16.4844H21.0938V14.1406H35.3125V37.6562Z" fill="#5489B1"/>
<path d="M31.7188 21.1719C31.0715 21.1719 30.5469 21.6965 30.5469 22.3438V29.375C30.5469 30.0223 31.0715 30.5469 31.7188 30.5469C32.366 30.5469 32.8906 30.0223 32.8906 29.375V22.3438C32.8906 21.6965 32.366 21.1719 31.7188 21.1719Z" fill="#5489B1"/>
<path d="M1.17188 40H15.2344C15.8817 40 16.4062 39.4754 16.4062 38.8281V27.0312C16.4062 26.8494 16.3638 26.6699 16.2827 26.5073L14.7867 23.5156H15.2344C15.8817 23.5156 16.4062 22.991 16.4062 22.3438V17.6562C16.4062 17.6526 16.4056 17.6492 16.4056 17.6456C16.3971 16.6855 15.4837 16.5259 15.2634 16.3605C13.0771 15.2673 11.7188 13.0695 11.7188 10.625C11.7188 8.68652 10.1416 7.10938 8.20312 7.10938C6.26465 7.10938 4.6875 8.68652 4.6875 10.625C4.6875 13.0695 3.32916 15.2673 1.14258 16.3605C0.956421 16.4996 0 16.6989 0 17.6562V22.3438C0 22.991 0.524597 23.5156 1.17188 23.5156H1.61957L0.123596 26.5073C0.120239 26.514 0.117798 26.5213 0.114441 26.5283C0.0378418 26.6891 0 26.8677 0 27.0312V38.8281C0 39.4754 0.524597 40 1.17188 40ZM9.375 28.2031V32.9688H2.34375V28.2031H9.375ZM2.34375 21.1719V18.8281H14.0625V21.1719H2.34375ZM5.72357 15.2286C6.57898 13.8443 7.03125 12.2522 7.03125 10.625C7.03125 9.97894 7.55707 9.45312 8.20312 9.45312C8.84918 9.45312 9.375 9.97894 9.375 10.625C9.375 12.2522 9.82727 13.8443 10.6827 15.2286C10.9595 15.6766 11.275 16.0965 11.6241 16.4844H4.7821C5.13123 16.0965 5.44647 15.6766 5.72357 15.2286ZM12.1664 23.5156L14.0625 27.3077V37.6562H2.34375V35.3125H10.5469C11.1942 35.3125 11.7188 34.7879 11.7188 34.1406V27.0312C11.7188 26.384 11.1942 25.8594 10.5469 25.8594H3.06793L4.23981 23.5156H12.1664Z" fill="#5489B1"/>
</g>
<defs>
<clipPath id="clip0_6_1711">
<rect width="40" height="40" fill="white"/>
</clipPath>
</defs>
</svg>
